<svg xmlns="http://www.w3.org/2000/svg" xmlns:xlink="http://www.w3.org/1999/xlink" width="430" height="450.78"><rect width="430" height="450.78" rx="5" ry="5" class="a"/><svg y="0%" x="0%"><circle cx="20" cy="20" r="6" fill="#ff5f58"/><circle cx="40" cy="20" r="6" fill="#ffbd2e"/><circle cx="60" cy="20" r="6" fill="#18c132"/></svg><svg height="390.78" viewBox="0 0 39 39.078" width="390" x="15" xmlns="http://www.w3.org/2000/svg" xmlns:xlink="http://www.w3.org/1999/xlink" y="50"><style>.a{fill:#282d35}.i{fill:#b9c0cb}.j{fill:#66c2cd}.l{fill:#a8cc8c}.m{fill:#b9c0cb;font-weight:700}.n{fill:#71bef2}</style><g font-size="1.67" font-family="Monaco,Consolas,Menlo,'Bitstream Vera Sans Mono','Powerline Symbols',monospace"><defs><symbol id="a"><path fill="transparent" d="M0 0h39v19H0z"/></symbol></defs><path class="a" d="M0 0h39v39.078H0z"/><svg width="39"><svg><use xlink:href="#a"/><text y="1.67" fill="#a8cc8c" font-weight="700">➜</text><text x="3.006" y="1.67" fill="#66c2cd" font-weight="700">~</text><text x="5.01" y="1.67" class="i">dodgem</text><text x="12.024" y="1.67" class="j">start</text><text x="34.068" y="1.67" fill="#555">22:11</text><text y="3.841" class="l">?</text><text x="2.004" y="3.841" class="m">Bump</text><text x="7.014" y="3.841" class="m">target:</text><text x="15.03" y="3.841" class="j">All</text><text x="19.038" y="3.841" class="j">trades</text><text y="6.012" class="l">?</text><text x="2.004" y="6.012" class="m">Repeat</text><text x="9.018" y="6.012" class="m">interval</text><text x="18.036" y="6.012" class="m">(minutes):</text><text x="29.058" y="6.012" class="j">15</text><text y="8.183" class="n">ℹ</text><text x="2.004" y="8.183" class="i">Bumping</text><text x="10.02" y="8.183" class="i">all</text><text x="14.028" y="8.183" class="i">trades</text><text x="21.042" y="8.183" class="i">every</text><text x="27.054" y="8.183" class="i">15</text><text x="30.06" y="8.183" class="i">minutes</text><text y="10.354" class="l">✔</text><text x="2.004" y="10.354" class="i">Logged</text><text x="9.018" y="10.354" class="i">in</text><text x="12.024" y="10.354" class="i">as:</text><text x="16.032" y="10.354" class="i">jamie.weavis@gmail.com</text><text y="12.525" class="l">✔</text><text x="2.004" y="12.525" class="i">Found</text><text x="8.016" y="12.525" class="i">10</text><text x="11.022" y="12.525" class="i">active</text><text x="18.036" y="12.525" class="i">trades</text><text y="14.696" class="l">✔</text><text x="2.004" y="14.696" class="i">Bumped</text><text x="9.018" y="14.696" class="i">trade</text><text x="15.03" y="14.696" class="i">1/10</text><text y="16.867" class="l">✔</text><text x="2.004" y="16.867" class="i">Bumped</text><text x="9.018" y="16.867" class="i">trade</text><text x="15.03" y="16.867" class="i">2/10</text><text y="19.038" class="l">✔</text><text x="2.004" y="19.038" class="i">Bumped</text><text x="9.018" y="19.038" class="i">trade</text><text x="15.03" y="19.038" class="i">3/10</text><text y="21.209" class="l">✔</text><text x="2.004" y="21.209" class="i">Bumped</text><text x="9.018" y="21.209" class="i">trade</text><text x="15.03" y="21.209" class="i">4/10</text><text y="23.38" class="l">✔</text><text x="2.004" y="23.38" class="i">Bumped</text><text x="9.018" y="23.38" class="i">trade</text><text x="15.03" y="23.38" class="i">5/10</text><text y="25.551" class="l">✔</text><text x="2.004" y="25.551" class="i">Bumped</text><text x="9.018" y="25.551" class="i">trade</text><text x="15.03" y="25.551" class="i">6/10</text><text y="27.722" class="l">✔</text><text x="2.004" y="27.722" class="i">Bumped</text><text x="9.018" y="27.722" class="i">trade</text><text x="15.03" y="27.722" class="i">7/10</text><text y="29.893" class="l">✔</text><text x="2.004" y="29.893" class="i">Bumped</text><text x="9.018" y="29.893" class="i">trade</text><text x="15.03" y="29.893" class="i">8/10</text><text y="32.064" class="l">✔</text><text x="2.004" y="32.064" class="i">Bumped</text><text x="9.018" y="32.064" class="i">trade</text><text x="15.03" y="32.064" class="i">9/10</text><text y="34.235" class="l">✔</text><text x="2.004" y="34.235" class="i">Bumped</text><text x="9.018" y="34.235" class="i">trade</text><text x="15.03" y="34.235" class="i">10/10</text><text y="36.406" class="n">ℹ</text><text x="2.004" y="36.406" class="i">Dodgem</text><text x="9.018" y="36.406" class="i">will</text><text x="14.028" y="36.406" class="i">run</text><text x="18.036" y="36.406" class="i">again</text><text x="24.048" y="36.406" class="i">at:</text><text x="28.056" y="36.406" class="i">22:28:48</text></svg></svg></g></svg></svg>